
<svg version="1.0" xmlns="http://www.w3.org/2000/svg"
 width="20" height="20" viewBox="0 0 200.000000 200.000000"
 preserveAspectRatio="xMidYMid meet">

<g transform="translate(0.000000,200.000000) scale(0.100000,-0.100000)"
fill="#000000" stroke="none">
<path d="M480 1116 l0 -54 -39 5 c-52 7 -81 -21 -81 -76 0 -49 39 -86 80 -76
14 3 40 6 58 5 l32 -1 0 126 0 125 -25 0 c-24 0 -25 -3 -25 -54z m-7 -107 c15
-24 1 -49 -27 -49 -29 0 -44 33 -25 56 15 18 38 15 52 -7z"/>
<path d="M1710 1115 l0 -55 -37 6 c-30 4 -43 1 -60 -16 -13 -11 -23 -26 -23
-33 0 -7 -8 -2 -18 9 -42 52 -100 58 -143 14 -24 -23 -31 -26 -36 -14 -7 20
-56 44 -88 44 -16 0 -38 -12 -56 -29 -25 -26 -29 -27 -29 -10 0 16 -7 19 -55
19 -48 0 -55 -2 -55 -20 0 -16 7 -20 31 -20 30 0 31 -1 17 -22 -36 -55 -108
-20 -108 52 0 64 51 99 96 66 17 -13 21 -12 37 1 16 16 16 17 -10 35 -36 23
-90 23 -130 -2 -65 -39 -67 -155 -2 -202 50 -38 148 -17 165 34 5 18 7 18 24
-10 24 -39 35 -45 82 -45 29 0 47 7 65 26 l26 25 21 -25 c18 -20 32 -26 66
-26 36 0 48 6 72 32 15 17 28 25 28 18 0 -31 34 -46 103 -46 l67 1 0 124 0
124 -25 0 c-24 0 -25 -3 -25 -55z m-372 -97 c18 -18 14 -46 -7 -58 -25 -13
-48 -4 -56 21 -12 38 35 65 63 37z m180 0 c18 -18 14 -46 -7 -58 -38 -20 -71
13 -51 51 12 21 40 25 58 7z m190 -20 c2 -19 -3 -30 -18 -38 -27 -14 -50 2
-50 35 0 29 9 37 40 33 19 -2 26 -10 28 -30z"/>
<path d="M110 1040 l0 -120 25 0 25 0 0 120 0 120 -25 0 -25 0 0 -120z"/>
<path d="M554 1145 c-4 -9 0 -23 9 -32 21 -21 49 -9 45 19 -4 28 -45 38 -54
13z"/>
<path d="M190 994 c0 -72 1 -74 24 -74 23 0 25 4 28 52 2 42 7 54 22 56 25 5
36 -14 36 -65 0 -39 2 -43 25 -43 24 0 25 3 25 58 0 77 -14 90 -97 90 l-63 0
0 -74z"/>
<path d="M559 1068 c0 -2 -2 -36 -3 -75 l-2 -73 28 0 28 0 0 75 c0 73 -1 75
-25 75 -14 0 -25 -1 -26 -2z"/>
<path d="M640 1043 c-28 -36 -26 -78 6 -110 19 -19 31 -24 52 -19 15 4 44 7
65 6 l37 -1 0 74 0 75 -70 0 c-63 1 -71 -1 -90 -25z m94 -29 c19 -19 20 -26 4
-42 -18 -18 -46 -14 -58 7 -7 15 -6 23 6 35 19 20 29 20 48 0z"/>
<path d="M820 994 c0 -72 1 -74 24 -74 23 0 25 4 28 53 3 48 5 52 28 52 23 0
25 -4 28 -52 3 -49 5 -53 28 -53 23 0 24 3 24 58 0 77 -14 90 -97 90 l-63 0 0
-74z"/>
<path d="M1801 1051 c-12 -12 -21 -25 -21 -29 0 -11 30 -37 53 -45 30 -11 19
-28 -15 -25 -24 2 -33 -1 -36 -14 -3 -15 4 -18 45 -18 79 0 100 45 38 81 -42
25 -45 42 -7 37 19 -2 27 2 27 12 0 25 -60 25 -84 1z"/>
</g>
</svg>
